<svg xmlns="http://www.w3.org/2000/svg" viewBox="0 0 200 200" width="200" height="200">
  <defs>
    <clipPath id="pin-clip">
      <path d="M100 10C66.863 10 40 36.863 40 70C40 103.137 100 170 100 170S160 103.137 160 70C160 36.863 133.137 10 100 10Z"/>
    </clipPath>
  </defs>

  <!-- Sombra suave del pin -->
  <ellipse cx="100" cy="175" rx="22" ry="6" fill="#185FA5" opacity=".18"/>

  <!-- Pin principal -->
  <path d="M100 10C66.863 10 40 36.863 40 70C40 103.137 100 170 100 170S160 103.137 160 70C160 36.863 133.137 10 100 10Z" fill="#185FA5"/>

  <!-- Círculo interior blanco -->
  <circle cx="100" cy="68" r="36" fill="#ffffff"/>

  <!-- Letras MZ -->
  <text x="100" y="78" text-anchor="middle"
    font-family="-apple-system,BlinkMacSystemFont,'Segoe UI',Roboto,sans-serif"
    font-size="26" font-weight="700" fill="#185FA5" letter-spacing="-1">MZ</text>

  <!-- Punto verde comunidad en la punta del pin -->
  <circle cx="100" cy="170" r="5" fill="#1D9E75"/>
</svg>
